<svg width="251" height="343" viewBox="0 0 251 343" fill="none" xmlns="http://www.w3.org/2000/svg">
<path fill-rule="evenodd" clip-rule="evenodd" d="M227.736 44.463H235.188C243.4 44.463 250.058 37.8118 250.058 29.6072V17.1072C250.058 7.65918 242.391 0 232.934 0H77.4302C66.0623 0 57.8502 10.8635 60.9602 21.7874L69.7168 52.5449C69.7155 52.5448 69.7142 52.5447 69.7129 52.5446L84.3803 104.051C88.656 105.173 94.1933 106.362 99.8132 106.942C105.708 107.552 113.01 107.727 119.426 107.674L113.327 87.0966C115.109 87.2748 116.822 87.4405 118.449 87.5878C130.645 88.6922 137.121 90.3116 146.173 92.5752C150.714 93.7107 155.904 95.0086 162.789 96.4846C183.399 100.903 221.276 97.0369 219.605 85.4385C217.934 73.84 181.171 56.1669 167.246 55.0623C158.52 54.3702 154.168 56.2802 150.079 58.0749C147.643 59.1444 145.3 60.1729 142.18 60.5854C135.471 60.5854 123.874 59.0708 109.789 57.2313C107.985 56.9958 106.141 56.7549 104.262 56.5113L99.5528 40.6242C97.9281 35.1424 102.04 29.642 107.762 29.642H212.901C216.997 29.642 220.318 32.9598 220.318 37.0525C220.318 41.1452 223.639 44.463 227.736 44.463ZM177.021 75.4978C176.628 78.05 171.979 79.4532 166.638 78.6322C161.297 77.8111 157.286 75.0766 157.679 72.5244C158.072 69.9723 162.72 68.569 168.062 69.3901C173.403 70.2112 177.414 72.9457 177.021 75.4978Z" fill="#FDFCFB"/>
<path d="M96.2757 145.833C15.0002 142.467 -5.49387 116.5 1.25376 80.4677C6.42825 52.836 31.4955 49.8423 60.5994 51.8034L69.6547 83.564C58.5408 83.3958 49.9253 84.4682 48.0435 88.2C43.9878 96.2427 57.1822 113.241 119.023 116.231C120.021 116.225 121 116.213 121.951 116.196L122.001 116.363C127.255 116.573 132.847 116.685 138.795 116.685C186.779 116.685 227.962 135.699 228.519 172.704C229.076 209.708 229.254 261.05 200.11 278.193C182.263 288.691 146.512 292.674 111.411 292.53L119.734 260.673C128.011 260.501 135.754 260.041 142.18 259.416C170.589 256.654 189.371 250.579 193.983 211.917C199.598 164.841 185.334 148.858 130.938 146.517L134.831 159.652C135.719 162.646 135.769 165.826 134.976 168.847L133.169 175.734C129.911 175.013 126.561 174.329 123.281 173.712C115.965 172.337 107.106 170.987 99.898 170.306L100.305 168.776C101.096 165.8 101.068 162.666 100.225 159.705L96.2757 145.833Z" fill="#FDFCFB"/>
<path fill-rule="evenodd" clip-rule="evenodd" d="M97.6632 178.714L97.6685 178.694C98.2603 178.743 98.869 178.799 99.4922 178.859C105.648 179.372 111.917 180.118 118.228 180.987C158.333 186.511 167.246 202.29 162.789 207.499C161.065 209.515 153.339 208.411 142.68 206.89C137.542 206.156 131.724 205.325 125.568 204.7L110.861 260.742C110.863 260.742 110.865 260.742 110.868 260.742L102.594 292.408C102.58 292.407 102.566 292.407 102.551 292.407L99.8672 302.635C98.4444 308.057 102.539 313.358 108.149 313.358H212.901C216.997 313.358 220.318 310.04 220.318 305.948C220.318 301.855 223.639 298.537 227.736 298.537H235.188C243.4 298.537 250.058 305.188 250.058 313.393V325.893C250.058 335.341 242.391 343 232.934 343H76.2598C65.0167 343 56.8245 332.358 59.7101 321.502L68.0169 290.25C55.193 288.912 43.832 287.047 35.232 284.822C-3.12669 274.9 3.65954 238.783 21.3065 207.499C36.5089 180.549 65.4273 176.265 97.6632 178.714ZM90.6383 205.143C63.7751 209.827 40.3969 225.724 45.2584 243.399C47.437 251.32 60.2081 255.947 76.4823 258.401L90.6383 205.143Z" fill="#FDFCFB"/>
</svg>
