<svg width="250" height="343" viewBox="0 0 250 343" fill="none" xmlns="http://www.w3.org/2000/svg">
<path fill-rule="evenodd" clip-rule="evenodd" d="M227.754 44.463C223.672 44.463 220.362 41.1452 220.362 37.0525C220.362 32.9598 217.052 29.642 212.97 29.642H110.055C103.003 29.642 97.5409 35.847 98.5666 42.8416C99.1903 47.0945 99.8884 51.5571 100.66 56.0987C103.645 56.4828 106.55 56.8636 109.356 57.2313C123.393 59.0708 134.951 60.5854 141.637 60.5854C144.746 60.1729 147.081 59.1444 149.51 58.075C153.584 56.2803 157.921 54.3702 166.617 55.0623C180.495 56.167 217.133 73.8401 218.798 85.4385C220.464 97.0369 182.716 100.903 162.176 96.4846C155.315 95.0085 150.143 93.7108 145.617 92.5752C136.596 90.3116 130.142 88.6922 117.988 87.5878C114.637 87.2834 110.918 86.9003 106.988 86.4919C107.803 89.6296 108.658 92.6492 109.552 95.4974C110.808 99.5009 112.187 103.583 113.637 107.663C108.742 107.601 103.705 107.387 99.4154 106.942C92.3134 106.206 85.3436 104.492 80.9023 103.176C76.155 87.6766 72.6104 68.9163 70.1375 53.0614C70.1099 52.9076 70.0825 52.7551 70.0554 52.6038C70.0591 52.6042 70.0628 52.6045 70.0664 52.6049C69.7769 50.7395 69.5022 48.9155 69.2423 47.1429C67.9575 38.3816 67.0045 30.6808 66.3718 25.1642C66.0552 22.4036 65.8182 20.1839 65.6594 18.6448C65.58 17.8751 65.5201 17.2752 65.4796 16.8625C65.4593 16.6561 65.4439 16.4965 65.4333 16.3859L65.4161 16.2054L65.4156 16.2028C64.6019 7.51023 71.4233 0 80.1325 0H232.935C242.36 0 250 7.65918 250 17.1072V29.6072C250 37.8118 243.365 44.463 235.181 44.463H227.754ZM176.36 75.4971C175.968 78.0492 171.335 79.4525 166.012 78.6314C160.689 77.8104 156.691 75.0758 157.083 72.5237C157.475 69.9716 162.108 68.5683 167.431 69.3894C172.754 70.2105 176.751 72.945 176.36 75.4971Z" fill="#F8F2E3"/>
<path d="M96.7043 145.866C97.793 148.472 98.856 150.972 99.8758 153.337C101.147 156.285 102.357 159.197 103.474 161.885C104.954 165.448 106.272 168.618 107.35 170.955L107.413 171.092L107.355 171.219C112.567 171.918 118.016 172.809 122.803 173.712C127.584 174.614 132.515 175.661 137.086 176.754C139.091 172.669 139.104 167.882 137.124 163.783L137.084 163.7L136.944 163.408C136.819 163.145 136.629 162.748 136.382 162.226C135.888 161.182 135.165 159.64 134.262 157.682C132.918 154.77 131.181 150.944 129.211 146.467C184.431 148.621 198.901 164.489 193.263 211.917C188.667 250.579 169.949 256.654 141.637 259.416C134.597 260.103 125.97 260.591 116.794 260.715C115.159 268.082 112.153 281.859 109.984 292.525C145.281 292.749 181.416 288.79 199.369 278.193C228.414 261.05 228.237 209.708 227.681 172.704C227.126 135.699 186.084 116.685 138.264 116.685C59.694 116.685 43.3811 97.0369 47.8221 88.2C49.5702 84.7216 57.1485 83.5537 67.1392 83.5474C65.1395 73.4001 62.6922 59.9335 61.2557 51.8672C31.8606 49.7818 6.40336 52.5441 1.19206 80.4677C-5.55503 116.621 15.0285 142.64 96.7043 145.866Z" fill="#F8F2E3"/>
<path fill-rule="evenodd" clip-rule="evenodd" d="M125.096 204.701C131.225 205.327 137.019 206.157 142.135 206.89C152.758 208.411 160.458 209.515 162.176 207.499C166.617 202.29 157.735 186.511 117.767 180.987C77.7984 175.464 39.4953 174.913 21.1764 207.499C3.58963 238.783 -3.17344 274.9 35.0543 284.822C44.4554 287.262 57.1669 289.27 71.4819 290.624C70.7082 294.729 70.01 298.573 69.3874 302.102C68.098 309.409 67.1292 315.383 66.4807 319.545C66.1564 321.626 65.9121 323.255 65.7476 324.373C65.6653 324.931 65.603 325.362 65.5607 325.658C64.2818 334.82 71.3793 343 80.608 343H232.935C242.36 343 250 335.341 250 325.893V313.393C250 305.188 243.365 298.537 235.181 298.537H227.754C223.672 298.537 220.362 301.855 220.362 305.948C220.362 310.04 217.052 313.358 212.97 313.358H103.699C100.467 313.358 98.0115 310.443 98.5745 307.253C99.429 302.41 100.429 296.963 101.573 291.061C103.592 281.121 106.343 268.462 108.052 260.72C108.029 260.72 108.005 260.72 107.982 260.719C108.575 258.133 109.189 255.515 109.823 252.875C114.102 235.043 119.906 218.115 125.096 204.701ZM93.487 204.638C93.2533 204.67 93.0198 204.703 92.7867 204.738C64.9812 208.837 40.0504 225.173 45.0465 243.399C47.3014 251.625 60.9424 256.299 78.0552 258.675C78.9857 254.518 79.9683 250.269 81.0029 245.957C84.5798 231.052 89.092 216.868 93.487 204.638Z" fill="#F8F2E3"/>
</svg>
